<svg xmlns="http://www.w3.org/2000/svg" width="131" height="32" viewBox="0 0 131 32"><path fill="#69B3FF" d="M20.6685714,-5.68434189e-14 C23.5666445,-5.68434189e-14 25.9025914,0.693289037 27.676412,2.07986711 C28.9127782,3.0463224 29.7486097,4.27676647 30.1839065,5.77119935 L32.2204651,5.77116279 L32.2204651,0.674551495 L38.6287043,0.674551495 L38.6287043,5.77116279 L49.2437209,5.77116279 L49.2437209,9.25634551 C49.9932226,8.10710962 50.9300997,7.20146181 52.0543522,6.53940199 C53.0849169,5.93251383 54.2204465,5.60378276 55.4609413,5.55320875 L55.8018605,5.54631229 L55.8017034,9.77130997 C56.641644,8.51196267 57.731663,7.51585603 59.0717608,6.78299003 C60.6706978,5.90857144 62.5069769,5.47136213 64.580598,5.47136213 C66.6042525,5.47136213 68.4030565,5.89607972 69.97701,6.74551495 C71.5509635,7.59495018 72.7813952,8.80664452 73.6683056,10.380598 C73.9082578,10.8064283 74.1157502,11.2514599 74.2907839,11.7156927 C74.4487876,11.3055869 74.6320524,10.9105178 74.8396013,10.5304983 C75.7265118,8.90657809 76.9694351,7.65740862 78.5683721,6.78299003 C80.1673091,5.90857144 82.0035882,5.47136213 84.0772093,5.47136213 C86.1008638,5.47136213 87.8996678,5.89607972 89.4736213,6.74551495 C91.0475748,7.59495018 92.2780065,8.80664452 93.1649169,10.380598 C93.1745257,10.3976502 93.1840823,10.4147331 93.193587,10.4318469 L93.1932226,5.77116279 L114.076412,5.77116279 L118.910698,18.8499668 L123.707508,5.77116279 L130.640399,5.77116279 L120.006985,31.0763888 L113.11157,31.0763888 L115.425515,25.9702326 L109.095814,10.9407309 L100.276013,21.3982724 L109.344983,21.3982724 L109.344983,26.6822591 L93.1182724,26.6822591 L93.1184359,21.9969772 C92.8340419,22.5088378 92.4997681,22.9963128 92.1156146,23.459402 C91.2037211,24.5586711 90.060731,25.420598 88.6866445,26.0451827 C87.312558,26.6697675 85.7760796,26.9820598 84.0772093,26.9820598 C82.0285713,26.9820598 80.2047842,26.5448505 78.6058472,25.6704319 C77.0069102,24.7960133 75.7577409,23.5468438 74.8583389,21.9229236 C74.6256365,21.5027664 74.4230375,21.0642127 74.2505425,20.6072623 C73.880852,21.6429794 73.3370662,22.5937918 72.6190033,23.459402 C71.7071098,24.5586711 70.5641197,25.420598 69.1900332,26.0451827 C67.8159467,26.6697675 66.2794683,26.9820598 64.580598,26.9820598 C62.53196,26.9820598 60.7081729,26.5448505 59.1092359,25.6704319 C57.5102989,24.7960133 56.2611296,23.5468438 55.3617276,21.9229236 C54.4623256,20.2990033 54.0126246,18.4002658 54.0126246,16.226711 C54.0126246,14.8107662 54.2008165,13.5114474 54.5772007,12.3287546 L54.0405316,12.3293023 C52.4415946,12.3293023 51.2423919,12.6728239 50.4429236,13.3598671 C49.6904827,14.006496 49.2921317,15.1123351 49.2478704,16.6773845 L49.2437209,16.9762126 L49.2437209,26.6822591 L39.6030565,26.6822591 C37.2796013,26.6822591 35.4683057,26.113887 34.1691694,24.9771429 C32.9290849,23.8920689 32.2808588,22.1525359 32.2244914,19.758544 L32.2204651,19.412093 L32.2204651,11.0926246 L29.6721595,11.0926246 L29.6721595,7.86976744 L23.5916279,7.86976744 C23.544291,7.06503935 23.261515,6.42287629 22.7433,5.94327827 L22.6547508,5.8648505 C22.0801329,5.37767442 21.3431229,5.13408638 20.4437209,5.13408638 C19.6692359,5.13408638 19.0446512,5.34019934 18.5699668,5.75242525 C18.0952824,6.16465116 17.8579402,6.75800663 17.8579402,7.53249169 C17.8579402,8.38192692 18.2576744,9.0439867 19.0571429,9.5186711 C19.8566113,9.9933555 21.1057807,10.5055149 22.8046512,11.0551495 C24.5035216,11.6297674 25.8838538,12.179402 26.9456478,12.7040532 C28.0074418,13.2287043 28.9255814,13.9906977 29.7000664,14.9900332 C30.4745515,15.9893688 30.861794,17.2760133 30.861794,18.8499668 C30.861794,20.3489701 30.4807973,21.7105648 29.718804,22.9347508 C28.9568106,24.1589369 27.8512957,25.133289 26.4022591,25.8578073 C24.9532226,26.5823256 23.2418605,26.9445847 21.2681728,26.9445847 C19.3444518,26.9445847 17.620598,26.6322924 16.0966113,26.0077076 C14.5726246,25.3831229 13.3546844,24.4587376 12.4427907,23.2345515 C11.5916899,22.0919778 11.1160062,20.7317711 11.0157395,19.1539313 L11,18.8124917 L17.8204651,18.8124917 C17.9203987,19.7868439 18.2576744,20.5300997 18.8322924,21.0422591 C19.4069103,21.5544186 20.1564119,21.8104983 21.0807973,21.8104983 C22.0301661,21.8104983 22.7796678,21.5918937 23.3293023,21.1546844 C23.8789369,20.7174751 24.1537542,20.1116279 24.1537542,19.3371429 C24.1537542,18.6875748 23.9351495,18.1504319 23.4979402,17.7257143 C23.0607309,17.3009967 22.523588,16.9512292 21.8865116,16.676412 C21.2494352,16.4015947 20.3437874,16.0893023 19.1695681,15.7395349 C17.4706977,15.2148837 16.0841196,14.6902326 15.0098339,14.1655814 C13.9355482,13.6409302 13.0111628,12.8664452 12.2366777,11.8421262 C11.4621927,10.8178073 11.0749502,9.48119601 11.0749502,7.83229236 C11.0749502,5.38392028 11.9618605,3.46644518 13.7356811,2.07986711 C15.5095016,0.693289037 17.8204651,-5.68434189e-14 20.6685714,-5.68434189e-14 Z M101.812492,11.0551495 L93.5105169,11.0552969 C94.1670274,12.4724972 94.4952824,14.0838767 94.4952824,15.8894352 C94.4952824,16.3391362 94.4742027,16.8028904 94.4320432,17.2806977 L94.3828571,17.7631894 L79.88,17.7631894 C79.9799337,19.0623256 80.3984052,20.0554153 81.1354153,20.7424585 C81.8724254,21.4295016 82.778073,21.7730233 83.8523588,21.7730233 C85.371349,21.7730233 86.4506624,21.1642405 87.0902997,19.9466751 L87.1876412,19.7493688 L94.0081063,19.7493688 C93.8973631,20.1844319 93.7584437,20.6057201 93.5913479,21.0132334 L101.812492,11.0551495 Z M73.5889757,17.7632628 L60.3833887,17.7631894 C60.4833224,19.0623256 60.9017939,20.0554153 61.638804,20.7424585 C62.3758141,21.4295016 63.2814617,21.7730233 64.3557475,21.7730233 C65.8747377,21.7730233 66.9540511,21.1642405 67.5936884,19.9466751 L67.6910299,19.7493688 L73.9682494,19.7496905 C73.7897839,19.1193507 73.6633593,18.4572081 73.5889757,17.7632628 Z M42.8354817,11.0926246 L38.6287043,11.0926246 L38.6287043,19.4870432 C38.6287043,20.1116279 38.7786047,20.5613289 39.0784053,20.8361462 C39.3448948,21.0804282 39.769304,21.2161404 40.3516328,21.2432829 L40.5774086,21.2483721 L42.8354817,21.2483721 L42.8354817,11.0926246 Z M64.5056478,10.6054485 C63.431362,10.6054485 62.5257144,10.9177409 61.7887043,11.5423256 C61.1083873,12.1188653 60.6675564,12.9189251 60.4662109,13.9425049 L60.4208638,14.2030565 L68.4405316,14.2030565 C68.4405316,13.1037874 68.0657807,12.2293688 67.3162791,11.5798007 C66.5667774,10.9302326 65.6299003,10.6054485 64.5056478,10.6054485 Z M84.0022591,10.6054485 C82.9279733,10.6054485 82.0223257,10.9177409 81.2853156,11.5423256 C80.6049986,12.1188653 80.1641677,12.9189251 79.9628222,13.9425049 L79.9174751,14.2030565 L87.9371429,14.2030565 C87.9371429,13.1037874 87.562392,12.2293688 86.8128904,11.5798007 C86.0633887,10.9302326 85.1265116,10.6054485 84.0022591,10.6054485 Z M4.55952174,0.06 C5.853,0.06 6.82854348,0.391521739 7.48615217,1.05456522 C8.14376087,1.7176087 8.47256522,2.58173913 8.47256522,3.64695652 C8.47256522,4.81 8.07582609,5.88880435 7.28234783,6.88336957 C6.48886957,7.87793478 5.478,8.84804348 4.24973913,9.79369565 L4.24973913,9.79369565 L8.65191304,9.79369565 L8.65191304,12.06 L0.467130435,12.06 L0.467130435,9.98934783 L0.571967391,9.90603261 C0.703706522,9.80125 0.803271739,9.72168478 0.870663043,9.66733696 L0.947619565,9.60472826 C0.974032609,9.58288043 0.982347826,9.57521739 0.972565217,9.58173913 C2.03778261,8.70130435 2.87745652,7.97847826 3.49158696,7.41326087 C4.10571739,6.84804348 4.62473913,6.25565217 5.04865217,5.63608696 C5.47256522,5.01652174 5.68452174,4.41326087 5.68452174,3.82630435 C5.68452174,3.38065217 5.58126087,3.03282609 5.37473913,2.78282609 C5.16821739,2.53282609 4.85843478,2.40782609 4.4453913,2.40782609 C4.03234783,2.40782609 3.70897826,2.56271739 3.47528261,2.8725 C3.24158696,3.18228261 3.12473913,3.61978261 3.12473913,4.185 L3.12473913,4.185 L0.434521739,4.185 L0.448309984,3.88266506 C0.502523618,3.09146806 0.696297101,2.42050725 1.02963043,1.86978261 C1.40463043,1.25021739 1.89919565,0.793695652 2.51332609,0.500217391 C3.12745652,0.20673913 3.80952174,0.06 4.55952174,0.06 Z"/></svg>