<svg xmlns="http://www.w3.org/2000/svg" width="25" height="25" viewBox="0 0 25 25"><path fill="#333" d="M13.3124991,25 L11.692185,25 C11.1839889,25 10.7116965,24.7380513 10.4418906,24.3072014 C10.324327,24.1221968 9.60681214,22.9193639 9.24175572,22.2067806 L7.94652881,21.6742438 C7.15638284,21.9242183 5.73369769,22.27938 5.61099143,22.3092646 L5.61119767,22.3094709 C5.1145541,22.4237345 4.59396063,22.2744088 4.23323378,21.9142976 L3.08547614,20.7665399 L3.08568237,20.7665399 C2.72516144,20.4062249 2.5758389,19.8854203 2.69050907,19.3887873 C2.74042106,19.1736711 3.08052385,17.8159401 3.32552982,17.0532499 L2.79299309,15.7629333 C2.04286921,15.3828185 0.792574752,14.6252604 0.692572315,14.5627985 L0.692572315,14.5630047 C0.261717043,14.2932305 0,13.8209064 0,13.3127103 L0,11.6872747 C0,11.1790785 0.261727603,10.7067861 0.692572315,10.4369802 C0.877576823,10.3194166 2.08040972,9.60190178 2.79299309,9.23684536 L3.32552982,7.94652881 C3.07555541,7.15638284 2.72039364,5.73369769 2.69050907,5.61099143 L2.69050907,5.61119767 C2.57624546,5.1145541 2.72557117,4.59396063 3.08568237,4.23344498 L4.23344002,3.08568734 L4.23323378,3.08568734 C4.59375471,2.72516641 5.11435346,2.57584387 5.61119767,2.69051403 C5.82631378,2.74042602 7.18404486,3.08052882 7.94673504,3.32553479 L9.2370516,2.79299805 C9.61716646,2.04287417 10.3747245,0.792579715 10.4371864,0.692577278 L10.4369802,0.692783514 C10.7065485,0.261928241 11.1790785,-1.77635684e-15 11.6872746,-1.77635684e-15 L13.3075886,-1.77635684e-15 C13.8157848,-1.77635684e-15 14.2882884,0.261933521 14.5578831,0.692783514 C14.6754467,0.877788022 15.3929615,2.08062092 15.7580179,2.79320429 L17.0483345,3.32574102 C17.8384805,3.07576661 19.2611656,2.72060484 19.3838719,2.69072027 L19.3838719,2.69051403 C19.8805154,2.57625042 20.4008977,2.72557613 20.7616246,3.08568734 L21.9093822,4.23344498 C22.2699031,4.59375999 22.4190198,5.11456465 22.3043496,5.61119767 C22.2544376,5.82631378 21.9143348,7.18404486 21.6693288,7.94673504 L22.2018656,9.2370516 C22.9519895,9.61716646 24.2022839,10.3747245 24.3022863,10.4371864 L24.3022863,10.4369802 C24.7331416,10.7067544 24.9948587,11.1790785 24.9948587,11.6872746 L24.9948587,13.3075886 C24.9948587,13.8159907 24.7331311,14.2882884 24.3022863,14.5578831 C24.1172818,14.6754467 22.9144489,15.3929615 22.2018656,15.7580179 L21.679234,17.0534561 C21.9292085,17.843602 22.2843702,19.2662872 22.3142548,19.3889934 L22.3144611,19.3887872 C22.4287247,19.8854307 22.279399,20.4060242 21.9192878,20.7665398 L20.7715301,21.9142975 C20.4110092,22.2744066 19.8904105,22.4237291 19.3937775,22.3094708 C19.1786613,22.2595588 17.8209303,21.919456 17.0582401,21.67445 L15.7679235,22.2069868 C15.3878087,22.9571106 14.6302506,24.2074051 14.5677887,24.3074075 L14.5679949,24.3072013 C14.297397,24.7397039 13.822623,25.0016216 13.3125789,25 L13.3124991,25 Z M7.98396372,20.189044 L10.2518648,21.1316224 L10.3644758,21.3815968 C10.5944444,21.8817515 11.4245861,23.2869231 11.6147703,23.5744169 L11.614564,23.5746231 C11.6323015,23.6030853 11.6636513,23.6202039 11.6972693,23.6196014 L13.3175833,23.6196014 C13.3509955,23.6202038 13.3823473,23.6030853 13.4000827,23.5746231 C13.547552,23.3395012 14.4001599,21.9143398 14.6503772,21.381803 L14.7629882,21.1318286 L17.0385452,20.1890918 L17.2885196,20.281697 C17.8062038,20.4716541 19.38403,20.8767485 19.7164563,20.9567399 L19.71625,20.9567399 C19.7478062,20.966021 19.7818377,20.9563274 19.8036967,20.9317836 L20.9514544,19.784026 C20.9755854,19.7617509 20.9852789,19.7279264 20.9764106,19.6963681 C20.913917,19.4288642 20.5088438,17.816016 20.3013678,17.2684314 L20.2087626,17.018457 L21.146589,14.7480743 L21.3965634,14.6354633 C21.8967182,14.4054947 23.3018897,13.575353 23.5893835,13.3851689 L23.5895897,13.3851689 C23.6180519,13.3676378 23.6351706,13.3362881 23.634568,13.3026695 L23.634568,11.6823555 C23.6351705,11.6489434 23.6180519,11.6173856 23.5895897,11.5998561 C23.3544678,11.4523868 21.9293064,10.5997789 21.3967697,10.3495617 L21.1467953,10.2369507 L20.2040584,7.96139364 L20.2966637,7.71141922 C20.4866208,7.19373501 20.8917151,5.61590881 20.9717065,5.28348255 L20.9715003,5.28368879 C20.978719,5.25213258 20.9692315,5.21913072 20.946544,5.1960309 L19.7987864,4.04827325 C19.7767177,4.0243487 19.7428927,4.01465469 19.7113397,4.023317 C19.4438358,4.0858106 17.835898,4.49088383 17.283403,4.69835985 L17.0334286,4.79096506 L14.7529612,3.85334981 L14.6403502,3.6033754 C14.4103816,3.10322066 13.5802399,1.69804914 13.3900558,1.41055533 L13.3900558,1.4103491 C13.3725247,1.38188695 13.3411749,1.36476826 13.3075564,1.36537085 L11.6973799,1.36537085 C11.6637613,1.36476837 11.63241,1.38188695 11.6146746,1.4103491 C11.4672053,1.64547098 10.6145974,3.07063243 10.3643801,3.60316917 L10.2517691,3.85314358 L7.97621211,4.79588038 L7.7262377,4.70327517 C7.20855349,4.51331806 5.63072729,4.10822371 5.29830102,4.02823232 L5.29850726,4.02823232 C5.26695105,4.01895121 5.2329196,4.02885108 5.21106057,4.0533945 L4.06330292,5.20115214 L4.06330292,5.2009459 C4.03917192,5.223221 4.02968436,5.25704548 4.03834667,5.2886038 C4.10084027,5.55610767 4.5059135,7.16895585 4.71338951,7.71654047 L4.80599473,7.96651488 L3.86816828,10.2469823 L3.61819387,10.3595933 C3.11803913,10.5895619 1.71286761,11.4197036 1.4253738,11.6098877 L1.42516757,11.6096815 C1.39670542,11.627419 1.37958673,11.6587687 1.38018932,11.6923868 L1.38018932,13.3127008 C1.37958684,13.3461129 1.39670542,13.3774648 1.42516757,13.3952002 C1.66028946,13.5426695 3.0854509,14.3952773 3.61798764,14.6454946 L3.86796205,14.7581056 L4.81069886,17.0336627 L4.71809364,17.2836371 C4.52813653,17.8013213 4.12304218,19.3791475 4.04305079,19.7115737 L4.04325703,19.7113675 C4.03624471,19.7429237 4.04552577,19.7759256 4.06821329,19.7988142 L5.21597093,20.9465718 C5.23824602,20.9707028 5.27186458,20.9803963 5.30341762,20.9715281 C5.5709215,20.9090345 7.17885931,20.5039613 7.73135429,20.2964852 L7.98396372,20.189044 Z M12.5022364,18.3385765 C10.9530963,18.3385765 9.467474,17.7231444 8.37188236,16.627764 C7.27650192,15.5323835 6.66106982,14.0467613 6.66106982,12.4974099 C6.66106982,10.9482697 7.27650192,9.46264743 8.37188236,8.36705579 C9.467474,7.27167535 10.9530963,6.65624325 12.5022364,6.65624325 C14.0515878,6.65624325 15.5371573,7.27167535 16.6325905,8.36705579 C17.727971,9.46264743 18.3434031,10.9482697 18.3434031,12.4974099 C18.3407219,14.0459165 17.7246446,15.5301131 16.6296865,16.62486 C15.5349397,17.719818 14.050743,18.3358837 12.5022364,18.3385765 L12.5022364,18.3385765 Z M12.5022364,8.0389063 C11.3197895,8.0389063 10.1858653,8.50858511 9.3497309,9.34469313 C8.51359648,10.1808276 8.04399686,11.3147517 8.04399686,12.4971987 C8.04399686,13.6796457 8.51362288,14.813781 9.3497309,15.6499154 C10.1858653,16.4858386 11.3197895,16.9556495 12.5022364,16.9556495 C13.6846834,16.9556495 14.8188188,16.4858175 15.6549532,15.6499154 C16.4908764,14.813781 16.9606872,13.6796457 16.9606872,12.4971987 C16.9592435,11.3151741 16.4892027,10.1820419 15.6532636,9.34611872 C14.8175516,8.5104067 13.6842082,8.04017349 12.5021836,8.0389063 L12.5022364,8.0389063 Z"/></svg>